<svg xmlns="http://www.w3.org/2000/svg" xmlns:xlink="http://www.w3.org/1999/xlink" viewBox="0 0 1918 1080"><defs><style>.cls-1{fill:url(#Degradado_sin_nombre_211);}.cls-2{fill:url(#Degradado_sin_nombre_108);}.cls-3{fill:url(#Degradado_sin_nombre_126);}.cls-4{fill:url(#Degradado_sin_nombre_60);}.cls-5{fill:url(#Degradado_sin_nombre_47);}.cls-6{fill:url(#Degradado_sin_nombre_211-2);}.cls-7{fill:url(#Degradado_sin_nombre_211-3);}.cls-8{fill:url(#Degradado_sin_nombre_25);}</style><linearGradient id="Degradado_sin_nombre_211" x1="1" y1="540" x2="1919" y2="540" gradientTransform="matrix(1, 0, 0, -1, 1, 1080)" gradientUnits="userSpaceOnUse"><stop offset="0" stop-color="#ccc"/><stop offset="1" stop-color="#84b2c8"/></linearGradient><linearGradient id="Degradado_sin_nombre_108" x1="1273.97" y1="550.45" x2="1677.47" y2="550.45" gradientUnits="userSpaceOnUse"><stop offset="0" stop-color="#69af04"/><stop offset="0.14" stop-color="#84b812"/><stop offset="0.29" stop-color="#9fa812"/><stop offset="0.43" stop-color="#b89d00"/><stop offset="0.57" stop-color="#dc8b00"/><stop offset="0.71" stop-color="#d09600"/><stop offset="0.86" stop-color="#e4ad00"/><stop offset="1" stop-color="#f0cb03"/></linearGradient><linearGradient id="Degradado_sin_nombre_126" x1="1128.16" y1="523.62" x2="1320.38" y2="557.51" gradientUnits="userSpaceOnUse"><stop offset="0" stop-color="#184103"/><stop offset="0.15" stop-color="#1f4f00"/><stop offset="0.27" stop-color="#2c6002"/><stop offset="0.41" stop-color="#467d00"/><stop offset="0.55" stop-color="#509600"/><stop offset="0.7" stop-color="#5faa00"/><stop offset="0.83" stop-color="#72be05"/><stop offset="1" stop-color="#8dbf00"/></linearGradient><linearGradient id="Degradado_sin_nombre_60" x1="1339.02" y1="371" x2="1339.02" y2="201.58" gradientUnits="userSpaceOnUse"><stop offset="0" stop-color="#de7912"/><stop offset="0.18" stop-color="#e3790c"/><stop offset="0.36" stop-color="#cd7701"/><stop offset="0.54" stop-color="#a9670a"/><stop offset="0.7" stop-color="#914600"/><stop offset="0.85" stop-color="#6c3510"/><stop offset="1" stop-color="#4a1511"/></linearGradient><linearGradient id="Degradado_sin_nombre_47" x1="1341.11" y1="297.99" x2="1553" y2="297.99" gradientUnits="userSpaceOnUse"><stop offset="0" stop-color="#a1a91a"/><stop offset="0.18" stop-color="#88a701"/><stop offset="0.36" stop-color="#6da011"/><stop offset="0.54" stop-color="#569507"/><stop offset="0.7" stop-color="#467806"/><stop offset="0.85" stop-color="#27540c"/><stop offset="1" stop-color="#0d2609"/></linearGradient><linearGradient id="Degradado_sin_nombre_211-2" x1="1543" y1="294.64" x2="1052.05" y2="294.64" gradientTransform="matrix(1, 0, 0, 1, 0, 0)" xlink:href="#Degradado_sin_nombre_211"/><linearGradient id="Degradado_sin_nombre_211-3" x1="1534.52" y1="309.5" x2="1055.48" y2="309.5" gradientTransform="matrix(1, 0, 0, 1, 0, 0)" xlink:href="#Degradado_sin_nombre_211"/><linearGradient id="Degradado_sin_nombre_25" x1="1248.49" y1="669.76" x2="1682.24" y2="593.28" gradientUnits="userSpaceOnUse"><stop offset="0" stop-color="#f04803"/><stop offset="0.01" stop-color="#ef4703"/><stop offset="0.08" stop-color="#e43d05"/><stop offset="0.16" stop-color="#e13a06"/><stop offset="0.21" stop-color="#da2d04"/><stop offset="0.28" stop-color="#d11e01"/><stop offset="0.34" stop-color="#ce1800"/><stop offset="0.42" stop-color="#c70b05"/><stop offset="0.5" stop-color="#c40507"/><stop offset="0.51" stop-color="#bd0406"/><stop offset="0.56" stop-color="#a70203"/><stop offset="0.62" stop-color="#9a0001"/><stop offset="0.67" stop-color="#960000"/><stop offset="0.69" stop-color="#910100"/><stop offset="0.78" stop-color="#820600"/><stop offset="0.85" stop-color="#7d0800"/><stop offset="0.92" stop-color="#770601"/><stop offset="1" stop-color="#670005"/></linearGradient></defs><g id="Capa_1" data-name="Capa 1"><rect class="cls-1" x="2" width="1918" height="1080" transform="translate(1920 1080) rotate(180)"/></g><g id="Manzana"><path class="cls-2" d="M1274,419s54,10,91-17,72-54,107-45,65,96,65,96,38,131-34,230c0,0-25.11,38.12-52.9,44.43a20.1,20.1,0,0,1-5.47.42c-3.57-.18-10.36-.27-14.63,1.15-6,2-27,10-27,10s-41.8,15-53.4,0c0,0,49.62-3.58,73.59-13.29a56.18,56.18,0,0,1,13.87-3.8c4.06-.53,8.68.09,12.94.09,11,0,70-56,75-117,0,0,27-145-57-224,0,0-24-17-68,12s-66,39-97,35S1274,419,1274,419Z" transform="translate(-2)"/><path class="cls-3" d="M1343.92,403.53a6.13,6.13,0,0,0,4.34-7.64c-2.43-8.81-12.85-28.67-57.26-27.89-57,1-112,20-139,70-25.52,47.26-32,104,18,199,0,0,50,77,110,100,0,0-118.44-110-123.72-210.5S1230,400,1230,400s61-23,96-3C1326,397,1336.24,405.32,1343.92,403.53Z" transform="translate(-2)"/><path class="cls-4" d="M1341,371s-14-65-13-90,11-53,30-63c0,0,5-4.64,0-14.32-2.34-4.54-8.42-1-14.22,4a69.29,69.29,0,0,0-20.8,32.53,125.51,125.51,0,0,0-5,42.78C1320,321,1341,371,1341,371Z" transform="translate(-2)"/><path class="cls-5" d="M1342,259s46,3,54,5c0,0,13-27,43-26s57,20,85,63,29,57,29,57-5-16-46-16c0,0-68,3.12-96.5-15.44S1391,276,1391,276s-36-6.24-49-5.12C1342,270.88,1340,263,1342,259Z" transform="translate(-2)"/><path class="cls-6" d="M1409,268s16-23,40-18c0,0,46,3,94,90C1543,340,1475,280,1409,268Z" transform="translate(-2)"/><path class="cls-7" d="M1403,279s-5,38,24,48c0,0,11,8,60,9s47.52,4,47.52,4S1477,286,1403,279Z" transform="translate(-2)"/></g><g id="Corazon"><path class="cls-8" d="M1360.22,434.3s87.3,8.7,108.54,92.2c0,0,9.24-40.5,39.24-59.5v14.6s-35,43.4-39,61.4c0,0-26-81-107-94s-121.24,62.36-121.24,62.36S1195,599,1284,690s183,138,183,138,169-94,218-186,6-136,6-136-37-75.6-144-50.8V443.44S1619,418,1662,452c0,0,93,54,59,160s-186.48,204.28-186.48,204.28S1481,852,1469,852c0,0-129-54-201-147,0,0-82.56-76-56.28-178.5C1211.72,526.5,1245.44,425.6,1360.22,434.3Z" transform="translate(-2)"/></g></svg>