<svg id="Capa_1" data-name="Capa 1" xmlns="http://www.w3.org/2000/svg" viewBox="0 0 73.29 34.47"><defs><style>.cls-1{fill:#1d1d1b;}.cls-2{fill:#58b037;}.cls-3{fill:#f3931b;}.cls-4{fill:#17ade4;}.cls-5{fill:#e7225e;}.cls-6{fill:#06642e;}.cls-7{fill:#761715;}.cls-8{fill:#25204d;}.cls-9{fill:#1d090a;}.cls-10{fill:#0a080e;}.cls-11{fill:#010202;}.cls-12{fill:#281f31;}.cls-13{fill:#f4951e;}.cls-14{fill:#63b445;}.cls-15{fill:#557c37;}.cls-16{fill:#463d38;}</style></defs><path class="cls-1" d="M46.93,36.52a.49.49,0,0,0,.1.34.32.32,0,0,0,.27.12h.56v1.14h-.7a1.32,1.32,0,0,1-1-.42,1.73,1.73,0,0,1-.38-1.19V29.57h1.2Z" transform="translate(-6.86 -15.87)"/><path class="cls-1" d="M55.65,29.57h1.2v1.2h-1.2Zm0,2.44h1.2v6.08h-1.2Z" transform="translate(-6.86 -15.87)"/><path class="cls-1" d="M64.64,32h3v1h-3Zm.65-.83A1.72,1.72,0,0,1,65.66,30a1.53,1.53,0,0,1,1.15-.4h.87v1.14h-.85a.29.29,0,0,0-.26.13.54.54,0,0,0-.09.33v6.92H65.29Z" transform="translate(-6.86 -15.87)"/><path class="cls-1" d="M76.41,37.86a2.1,2.1,0,0,1-.91-.93,3.17,3.17,0,0,1-.32-1.48v-.68a3.44,3.44,0,0,1,.31-1.54,2.11,2.11,0,0,1,.87-1,2.64,2.64,0,0,1,1.38-.34,2.25,2.25,0,0,1,1.31.38,2.46,2.46,0,0,1,.82,1.1,4.72,4.72,0,0,1,.28,1.73v.4h-4.1v-1h3a2.1,2.1,0,0,0-.39-1.16,1.08,1.08,0,0,0-.89-.41,1.32,1.32,0,0,0-1,.44,1.91,1.91,0,0,0-.37,1.26v.78a1.57,1.57,0,0,0,.4,1.16,1.5,1.5,0,0,0,1.13.4,2,2,0,0,0,.72-.14,2.26,2.26,0,0,0,.64-.41l.78.78a3.24,3.24,0,0,1-1,.67,2.83,2.83,0,0,1-1.13.24A3.06,3.06,0,0,1,76.41,37.86Z" transform="translate(-6.86 -15.87)"/><path class="cls-2" d="M36.29,40.13a25.61,25.61,0,0,1,1,3.64,22,22,0,0,1,.3,6.32c0,.13,0,.23-.2.23-2.78.14-5.43-.22-7.63-2.12a6.56,6.56,0,0,1-2.16-4.48A13.31,13.31,0,0,1,28,39.1a8.76,8.76,0,0,0,0-3.64c-.07-.46-.2-.91-.3-1.36a.17.17,0,0,1,0-.14c.17,0,.2.11.25.21a16.56,16.56,0,0,0,1.72,2.66,9.1,9.1,0,0,0,2.68,2.38,6.35,6.35,0,0,0,3.81.85A.18.18,0,0,1,36.29,40.13Z" transform="translate(-6.86 -15.87)"/><path class="cls-3" d="M6.9,35.33A18.17,18.17,0,0,1,8.07,30,21.2,21.2,0,0,1,22.19,16.74a19.85,19.85,0,0,1,5.73-.87c.24,0,.34.05.39.31a10.81,10.81,0,0,1-.13,5.33s0,.06,0,.1,0,.06-.07.06a23.72,23.72,0,0,0-6.34.52A21.53,21.53,0,0,0,13,26.55a25.58,25.58,0,0,0-3.22,3.28,2.71,2.71,0,0,0-.24.35h0c-.08.06-.19.1-.2.22A11,11,0,0,0,7,35.06c0,.11,0,.23-.07.35S6.87,35.39,6.9,35.33Z" transform="translate(-6.86 -15.87)"/><path class="cls-4" d="M28.13,21.64l0,0a20.85,20.85,0,0,1,4.71.89,22.69,22.69,0,0,1,4.78,2.12c.29.17.32.33.22.64A9.83,9.83,0,0,1,35,29.73a.16.16,0,0,1-.1,0,2.9,2.9,0,0,1-.55-.36,21.53,21.53,0,0,0-9-3.57c-.22,0-.46,0-.65-.17,0-.16.16-.19.27-.25a6.39,6.39,0,0,0,3-3.44C28,21.85,28,21.7,28.13,21.64Z" transform="translate(-6.86 -15.87)"/><path class="cls-5" d="M34.91,29.73H35A24.63,24.63,0,0,1,38,32.53a21.84,21.84,0,0,1,3.32,4.87c.07.15.11.25-.05.39a9.62,9.62,0,0,1-5,2.34l0,0a.81.81,0,0,1-.21-.34,21.74,21.74,0,0,0-3.12-5.27,22.61,22.61,0,0,0-3.16-3.18c-.09-.08-.3-.12-.15-.32.45,0,.9,0,1.35,0a6,6,0,0,0,3.58-1.11A.65.65,0,0,1,34.91,29.73Z" transform="translate(-6.86 -15.87)"/><path class="cls-6" d="M28.13,21.64a6.38,6.38,0,0,1-3.21,3.84l-.26.14a.21.21,0,0,1-.1.06,6.1,6.1,0,0,1-1.28-.05,19.5,19.5,0,0,0-4.18.18A28.2,28.2,0,0,0,14.39,27c-.07.07-.2,0-.26.14a7.54,7.54,0,0,0-1.4.59,10.86,10.86,0,0,0-3.24,2.47c0-.35.33-.56.53-.81A21.32,21.32,0,0,1,22.29,22a22,22,0,0,1,5.49-.41A.72.72,0,0,1,28.13,21.64Z" transform="translate(-6.86 -15.87)"/><path class="cls-7" d="M29.56,31A29.12,29.12,0,0,1,32,33.32,21.51,21.51,0,0,1,36.22,40s0,.06,0,.1a6.08,6.08,0,0,1-4.09-1,11,11,0,0,1-3.59-3.85c-.27-.44-.53-.9-.79-1.36-.08-.08-.09-.2-.14-.29a12.51,12.51,0,0,0-1.94-3.31A17.84,17.84,0,0,0,24.31,29a.27.27,0,0,1,.31,0A15.41,15.41,0,0,0,29.42,31l.06,0A.27.27,0,0,1,29.56,31Z" transform="translate(-6.86 -15.87)"/><path class="cls-8" d="M29.56,31l-.08,0c-.67-.33-1.22-.83-1.85-1.21A21.13,21.13,0,0,0,22,27.33c-.45-.13-.91-.23-1.37-.37-.24-.06-.48-.11-.73-.15a1.26,1.26,0,0,1-.43-.08c0-.18.21-.14.33-.15a24.26,24.26,0,0,0,2.55-.29,10.89,10.89,0,0,0,1.77-.52,2.93,2.93,0,0,1,.51-.13l.08,0c.79.17,1.6.26,2.39.45a21.64,21.64,0,0,1,7.74,3.55l.12.11a6.54,6.54,0,0,1-5,1.35Z" transform="translate(-6.86 -15.87)"/><path class="cls-9" d="M24.58,25.64a9.2,9.2,0,0,1-2.75.83,20.75,20.75,0,0,1-2.23.2.21.21,0,0,0-.18.06,11.62,11.62,0,0,0-5,.28.06.06,0,0,1-.09,0,14.74,14.74,0,0,1,2.58-.86,22.67,22.67,0,0,1,4.1-.61A21.4,21.4,0,0,1,24.58,25.64Z" transform="translate(-6.86 -15.87)"/><path class="cls-10" d="M20.62,26.93a16.57,16.57,0,0,1,2.76.75,21,21,0,0,1,4.94,2.48,10.53,10.53,0,0,1,1.16.86,14.25,14.25,0,0,1-4.84-1.89.82.82,0,0,0-.33-.15,11.43,11.43,0,0,0-3.82-2C20.5,26.88,20.55,26.9,20.62,26.93Z" transform="translate(-6.86 -15.87)"/><path class="cls-11" d="M35.73,18.29a1,1,0,1,1-1-1A1,1,0,0,1,35.73,18.29Z" transform="translate(-6.86 -15.87)"/><path class="cls-12" d="M20.62,26.93l-.13.06-.64-.18A2,2,0,0,1,20.62,26.93Z" transform="translate(-6.86 -15.87)"/><path class="cls-13" d="M6.9,35.33l.07.08-.07.44A.77.77,0,0,1,6.9,35.33Z" transform="translate(-6.86 -15.87)"/><path class="cls-14" d="M27.63,33.66a.78.78,0,0,1,.14.29v.15A.78.78,0,0,1,27.63,33.66Z" transform="translate(-6.86 -15.87)"/><path class="cls-15" d="M9.3,30.4c0-.16,0-.22.2-.22A.6.6,0,0,1,9.3,30.4Z" transform="translate(-6.86 -15.87)"/><path class="cls-16" d="M14.32,27h.09a.61.61,0,0,1-.28.11C14.14,27,14.23,27,14.32,27Z" transform="translate(-6.86 -15.87)"/></svg>